<?xml version="1.0" standalone="no"?><svg xmlns="http://www.w3.org/2000/svg" viewBox="0 0 1440 320"><path fill="#000000" fill-opacity="1" d="M0,64L20,101.3C40,139,80,213,120,213.3C160,213,200,139,240,128C280,117,320,171,360,208C400,245,440,267,480,277.3C520,288,560,288,600,266.7C640,245,680,203,720,165.3C760,128,800,96,840,69.3C880,43,920,21,960,48C1000,75,1040,149,1080,165.3C1120,181,1160,139,1200,138.7C1240,139,1280,181,1320,208C1360,235,1400,245,1420,250.7L1440,256L1440,320L1420,320C1400,320,1360,320,1320,320C1280,320,1240,320,1200,320C1160,320,1120,320,1080,320C1040,320,1000,320,960,320C920,320,880,320,840,320C800,320,760,320,720,320C680,320,640,320,600,320C560,320,520,320,480,320C440,320,400,320,360,320C320,320,280,320,240,320C200,320,160,320,120,320C80,320,40,320,20,320L0,320Z"></path></svg>