<?xml version="1.0" standalone="no"?><svg xmlns="http://www.w3.org/2000/svg" viewBox="0 0 1440 320"><path fill="#000000" fill-opacity="1" d="M0,192L30,208C60,224,120,256,180,250.7C240,245,300,203,360,202.7C420,203,480,245,540,261.3C600,277,660,267,720,245.3C780,224,840,192,900,176C960,160,1020,160,1080,138.7C1140,117,1200,75,1260,80C1320,85,1380,139,1410,165.3L1440,192L1440,0L1410,0C1380,0,1320,0,1260,0C1200,0,1140,0,1080,0C1020,0,960,0,900,0C840,0,780,0,720,0C660,0,600,0,540,0C480,0,420,0,360,0C300,0,240,0,180,0C120,0,60,0,30,0L0,0Z"></path></svg>