













<?xml version="1.0" standalone="no"?><svg xmlns="http://www.w3.org/2000/svg" viewBox="0 0 1440 320"><path fill="#00000" fill-opacity="1" d="M0,192L34.3,213.3C68.6,235,137,277,206,288C274.3,299,343,277,411,240C480,203,549,149,617,133.3C685.7,117,754,139,823,170.7C891.4,203,960,245,1029,240C1097.1,235,1166,181,1234,170.7C1302.9,160,1371,192,1406,208L1440,224L1440,0L1405.7,0C1371.4,0,1303,0,1234,0C1165.7,0,1097,0,1029,0C960,0,891,0,823,0C754.3,0,686,0,617,0C548.6,0,480,0,411,0C342.9,0,274,0,206,0C137.1,0,69,0,34,0L0,0Z"></path></svg>